<?xml version="1.0" standalone="no"?>
<!DOCTYPE svg PUBLIC "-//W3C//DTD SVG 20010904//EN"
 "http://www.w3.org/TR/2001/REC-SVG-20010904/DTD/svg10.dtd">
<svg version="1.0" xmlns="http://www.w3.org/2000/svg"
 width="512.000000pt" height="512.000000pt" viewBox="0 0 512.000000 512.000000"
 preserveAspectRatio="xMidYMid meet">
<metadata>
Created by potrace 1.11, written by Peter Selinger 2001-2013
</metadata>
<g transform="translate(0.000000,512.000000) scale(0.100000,-0.100000)"
fill="#000000" stroke="none">
<path d="M270 4391 c-83 -26 -162 -85 -208 -159 -60 -94 -62 -111 -62 -602 0
-437 0 -448 21 -474 27 -34 77 -36 107 -3 21 22 22 32 22 200 l0 177 2410 0
2410 0 0 -980 c0 -967 0 -980 20 -1000 30 -30 83 -27 109 6 21 27 21 27 21
1274 0 1221 0 1249 -20 1311 -36 114 -115 197 -226 239 -48 17 -78 20 -239 20
-172 0 -186 -1 -205 -20 -11 -11 -20 -27 -20 -35 0 -12 -16 -15 -87 -15 -88 1
-88 1 -108 33 l-20 32 -1950 2 c-1073 1 -1961 -2 -1975 -6z m335 -376 c28 -27
30 -42 14 -78 -26 -56 -105 -55 -129 2 -31 75 58 134 115 76z m582 3 c31 -29
30 -72 -3 -105 -20 -20 -31 -24 -57 -19 -40 8 -55 23 -63 63 -13 66 73 108
123 61z m578 -3 c46 -45 20 -115 -43 -117 -69 -2 -100 79 -46 121 35 27 59 26
89 -4z"/>
<path d="M3288 3136 c-76 -28 -124 -76 -148 -150 -28 -86 13 -201 89 -251 53
-36 127 -45 361 -45 113 0 232 4 264 10 74 12 127 47 162 105 67 114 27 256
-89 318 -40 21 -54 22 -322 24 -216 2 -289 0 -317 -11z m591 -172 c27 -35 26
-59 -4 -89 l-24 -25 -261 0 -261 0 -24 25 c-30 30 -31 54 -4 89 l20 26 269 0
269 0 20 -26z"/>
<path d="M1807 3038 c-21 -16 -557 -1421 -559 -1467 -3 -60 73 -94 120 -53 20
17 562 1429 562 1463 0 9 -9 28 -21 43 -23 29 -72 36 -102 14z"/>
<path d="M45 2949 c-47 -26 -45 9 -45 -975 0 -905 1 -934 20 -995 36 -114 112
-194 229 -241 l56 -23 2255 0 2255 0 56 23 c117 47 193 127 229 241 16 50 20
91 20 198 0 129 -1 135 -25 158 -31 32 -74 33 -103 2 -20 -21 -22 -34 -22
-149 0 -180 -28 -245 -124 -293 l-50 -25 -2240 0 -2241 0 -52 30 c-36 21 -61
44 -80 77 l-28 48 -5 947 c-5 1031 -2 969 -60 982 -14 3 -34 1 -45 -5z"/>
<path d="M758 2553 c-231 -231 -248 -250 -248 -283 0 -33 17 -52 243 -278 199
-198 248 -242 270 -242 39 0 77 41 77 82 0 29 -22 54 -205 237 l-206 205 211
211 c115 116 210 218 210 228 0 45 -42 87 -88 87 -9 0 -128 -111 -264 -247z"/>
<path d="M2094 2777 c-20 -18 -27 -32 -26 -57 1 -30 24 -57 209 -242 l208
-208 -208 -208 c-225 -226 -232 -238 -182 -287 50 -51 58 -46 322 218 134 133
246 252 249 264 3 11 0 32 -6 45 -16 29 -412 431 -464 469 -47 35 -67 36 -102
6z"/>
<path d="M3288 2536 c-142 -51 -199 -202 -124 -330 35 -59 87 -94 162 -106 78
-13 1221 -13 1299 0 80 13 132 50 168 120 53 103 23 223 -72 287 -19 13 -50
27 -70 33 -22 6 -278 10 -681 10 -512 -1 -653 -4 -682 -14z m1356 -162 c27
-27 31 -63 9 -92 l-20 -27 -658 0 -658 0 -20 27 c-22 29 -18 65 9 92 14 14 88
16 669 16 581 0 655 -2 669 -16z"/>
<path d="M3288 1936 c-142 -51 -199 -202 -124 -330 35 -59 87 -94 162 -106 77
-13 851 -13 928 0 113 18 186 94 194 200 7 100 -35 176 -122 223 -40 22 -48
22 -521 24 -383 2 -488 0 -517 -11z m991 -172 c27 -35 26 -59 -4 -89 l-24 -25
-459 0 c-423 0 -461 1 -480 18 -32 26 -37 63 -12 95 l21 27 469 0 469 0 20
-26z"/>
</g>
</svg>
